<?xml version="1.0" encoding="UTF-8" standalone="no"?>
<!-- Created with Inkscape (http://www.inkscape.org/) -->

<svg
   width="41.587296mm"
   height="6.9031162mm"
   viewBox="0 0 41.587296 6.9031162"
   version="1.1"
   id="svg1"
   xmlns="http://www.w3.org/2000/svg"
   xmlns:svg="http://www.w3.org/2000/svg">
  <defs
     id="defs1" />
  <g
     id="layer1">
    <path
       style="font-weight:500;font-size:11.2612px;font-family:'Josefin Sans';-inkscape-font-specification:'Josefin Sans Medium';letter-spacing:0.264583px;fill:#ffffff;stroke-width:2.19461"
       d="m 2.3761199,6.9031236 q -0.6644108,0 -1.2049484,-0.2702688 Q 0.63063388,6.3513248 0.31532028,5.799526 6.6823959e-6,5.2477272 6.6823959e-6,4.4369208 q 0,-0.7995452 0.3265747976041,-1.3738664 0.337836,-0.5743212 0.87837362,-0.8783736 0.5517988,-0.3153136 1.1936872,-0.3153136 0.675672,0 1.1035976,0.2927912 0.4391868,0.28153 0.6869332,0.6644108 l -0.078828,0.1801792 0.112612,-0.9346796 h 1.069814 v 4.7184428 h -1.159904 v -1.182426 l 0.1238732,0.28153 Q 4.2116955,5.9797052 4.0652999,6.1486232 3.9189043,6.30628 3.6711579,6.4864592 3.4346727,6.6666384 3.1080979,6.7905116 2.7927843,6.9031236 2.3761199,6.9031236 Z M 2.6914335,5.9571828 q 0.3716196,0 0.6644108,-0.1351344 Q 3.6486355,5.686914 3.8513371,5.4391676 4.0540387,5.1914212 4.1328671,4.8535852 V 3.8738608 Q 4.0427775,3.5585472 3.8288147,3.3333232 3.6148519,3.096838 3.3107995,2.9617036 3.0180083,2.8265692 2.6576499,2.8265692 q -0.4054032,0 -0.7432392,0.2027016 -0.337836,0.1914404 -0.5405376,0.5405376 -0.2027016,0.3490972 -0.2027016,0.8108064 0,0.4391868 0.2027016,0.7995452 0.2139628,0.3603584 0.56306,0.5743212 0.3490972,0.2027016 0.7545004,0.2027016 z m 5.6812311,-3.885114 0.1013508,1.013508 -0.045045,-0.078828 Q 8.6992394,2.477472 9.1722098,2.1846808 9.6451802,1.8806284 10.264546,1.8806284 q 0.382881,0 0.686933,0.1238732 0.315314,0.1238732 0.518016,0.3490972 0.202701,0.225224 0.259007,0.56306 l -0.05631,0.033784 Q 11.953722,2.45495 12.415431,2.17342 q 0.472971,-0.2927912 1.002247,-0.2927912 0.686933,0 1.092337,0.394142 0.416664,0.394142 0.427925,1.013508 V 6.7905116 H 13.789302 V 3.7274652 Q 13.778041,3.378368 13.620384,3.1418828 13.473988,2.9053976 13.091107,2.8828752 q -0.405403,0 -0.720716,0.2477464 Q 12.066338,3.378368 11.89742,3.77251 11.728502,4.166652 11.717241,4.6171 V 6.7905116 H 10.557337 V 3.7274652 Q 10.546076,3.378368 10.388419,3.1418828 10.230763,2.9053976 9.8366206,2.8828752 q -0.4054032,0 -0.7094556,0.2477464 Q 8.8231126,3.378368 8.6541946,3.7837712 8.4965378,4.1779132 8.4965378,4.6171 V 6.7905116 H 7.3366342 V 2.0720688 Z M 19.200256,6.9031236 q -0.822068,0 -1.40765,-0.3153136 Q 17.207023,6.2612352 16.89171,5.6981752 16.576396,5.123854 16.576396,4.391876 q 0,-0.6981944 0.349097,-1.2612544 0.360359,-0.5743212 0.957202,-0.9121572 0.608105,-0.337836 1.340083,-0.337836 0.945941,0 1.565307,0.5517988 0.630627,0.5517988 0.84459,1.5427844 L 17.792606,5.3040332 17.522337,4.6283612 20.596644,3.5247636 20.360159,3.6711592 Q 20.225025,3.322062 19.932234,3.0630544 19.639442,2.7927856 19.132688,2.7927856 q -0.405403,0 -0.731978,0.2027016 -0.315313,0.1914404 -0.506754,0.5405376 -0.180179,0.337836 -0.180179,0.7995452 0,0.4729704 0.191441,0.8333288 0.202701,0.3490972 0.540537,0.5517988 0.349097,0.2027016 0.777023,0.2027016 0.304052,0 0.574321,-0.112612 0.28153,-0.112612 0.529277,-0.28153 l 0.529276,0.8558512 q -0.37162,0.2364852 -0.810806,0.3828808 -0.427926,0.1351344 -0.84459,0.1351344 z M 22.62924,3.0630544 q 0,-0.28153 0.191441,-0.4617092 0.202701,-0.1914404 0.439186,-0.1914404 0.225224,0 0.427926,0.1914404 0.202702,0.1801792 0.202702,0.450448 0,0.2927912 -0.202702,0.4729704 -0.202702,0.168918 -0.427926,0.168918 -0.236485,0 -0.439186,-0.168918 Q 22.62924,3.3558456 22.62924,3.0630544 Z m 0,3.0855688 q 0,-0.2702688 0.191441,-0.450448 0.202701,-0.1914404 0.439186,-0.1914404 0.225224,0 0.427926,0.1914404 0.202702,0.1801792 0.202702,0.450448 0,0.2927912 -0.202702,0.4729704 -0.202702,0.168918 -0.427926,0.168918 -0.236485,0 -0.439186,-0.168918 Q 22.62924,6.4414144 22.62924,6.1486232 Z m 4.79158,0.7545004 q -0.66441,0 -1.204948,-0.2702688 -0.540537,-0.28153 -0.855851,-0.8333288 -0.315314,-0.5517988 -0.315314,-1.3626052 0,-0.7995452 0.326575,-1.3738664 0.337836,-0.5743212 0.878374,-0.8783736 0.551798,-0.3153136 1.193687,-0.3153136 0.675672,0 1.103597,0.2927912 0.439187,0.28153 0.686934,0.6644108 l -0.07883,0.1801792 0.112612,-0.9346796 h 1.069814 v 4.7184428 h -1.159903 v -1.182426 l 0.123873,0.28153 q -0.04505,0.09009 -0.191441,0.2590076 -0.146395,0.1576568 -0.394142,0.337836 -0.236485,0.1801792 -0.56306,0.3040524 -0.315313,0.112612 -0.731978,0.112612 z m 0.315314,-0.9459408 q 0.37162,0 0.664411,-0.1351344 0.292791,-0.1351344 0.495493,-0.3828808 0.202701,-0.2477464 0.28153,-0.5855824 V 3.8738608 Q 29.087478,3.5585472 28.873515,3.3333232 28.659552,3.096838 28.3555,2.9617036 28.062709,2.8265692 27.70235,2.8265692 q -0.405403,0 -0.743239,0.2027016 -0.337836,0.1914404 -0.540537,0.5405376 -0.202702,0.3490972 -0.202702,0.8108064 0,0.4391868 0.202702,0.7995452 0.213962,0.3603584 0.56306,0.5743212 0.349097,0.2027016 0.7545,0.2027016 z M 32.831781,8.0375671e-6 h 1.159904 V 2.08333 h 1.261254 V 2.9954872 H 33.991685 V 6.7905116 H 32.831781 V 2.9954872 H 31.998453 V 2.08333 h 0.833328 z M 36.362105,4.3806148 q 0,-0.7094556 0.337836,-1.2725156 0.337836,-0.5743212 0.93468,-0.900896 0.596844,-0.3265748 1.362605,-0.3265748 0.777023,0 1.362605,0.3265748 0.585583,0.3265748 0.900896,0.900896 0.326575,0.56306 0.326575,1.2725156 0,0.7094556 -0.326575,1.2837768 -0.315313,0.5743212 -0.900896,0.9121572 -0.585582,0.3265748 -1.373866,0.3265748 -0.7545,0 -1.351344,-0.3040524 -0.585582,-0.3040524 -0.93468,-0.8671124 -0.337836,-0.5743212 -0.337836,-1.351344 z m 1.171165,0.011261 q 0,0.4391868 0.191441,0.7995452 0.19144,0.3490972 0.518015,0.56306 0.326575,0.2027016 0.731978,0.2027016 0.416664,0 0.743239,-0.2027016 0.326575,-0.2139628 0.506754,-0.56306 0.19144,-0.3603584 0.19144,-0.7995452 0,-0.4391868 -0.19144,-0.788284 -0.180179,-0.3490972 -0.506754,-0.56306 -0.326575,-0.2139628 -0.743239,-0.2139628 -0.416665,0 -0.743239,0.2139628 -0.326575,0.213963 -0.518016,0.5743214 -0.180179,0.3490972 -0.180179,0.7770226 z"
       id="text1"
       aria-label="ame:ato" />
  </g>
</svg>
